<svg xmlns="http://www.w3.org/2000/svg" viewBox="0 0 64 64" role="img" aria-label="moctLab.">
  <defs>
    <clipPath id="m" clipPathUnits="userSpaceOnUse">
      <rect x="0" y="0" width="2478" height="2178" />
    </clipPath>
    <linearGradient id="bg" x1="0" y1="0" x2="1" y2="1">
      <stop offset="0%" stop-color="#5B22FF" />
      <stop offset="100%" stop-color="#2706BF" />
    </linearGradient>
  </defs>
  <rect width="64" height="64" rx="14" fill="url(#bg)" />
  <g transform="translate(13.000 15.300) scale(0.015335)" clip-path="url(#m)">
    <path fill="#ffffff" fill-rule="evenodd" d="M 5756.833 0.779 C 5756.650 1.208, 5671.225 31.880, 5567 68.940 C 5462.775 106, 5376.938 136.754, 5376.250 137.283 C 5374.692 138.482, 5374.476 297.249, 5376.002 320 C 5378.856 362.552, 5388.098 394.487, 5405.086 420.500 C 5412.215 431.417, 5430.940 449.901, 5443 457.927 C 5461.138 469.998, 5486.480 480.779, 5512.500 487.496 C 5528.113 491.526, 5546.462 494.621, 5572 497.530 C 5584.925 499.003, 5595.854 500.537, 5596.286 500.940 C 5596.879 501.492, 5597.291 531.606, 5597.018 554.498 C 5597.002 555.823, 5570.816 556.025, 5369.750 556.248 L 5142.500 556.500 5142 578 C 5141.553 597.242, 5141.327 599.472, 5139.853 599.230 C 5138.947 599.081, 5133.772 596.885, 5128.353 594.349 C 5099.831 581.003, 5054.413 564.430, 5016.488 553.531 C 4882.617 515.056, 4711.681 503.925, 4571.500 524.553 C 4426.789 545.847, 4287.905 606.212, 4182 693.847 C 4129.918 736.944, 4081.244 790.451, 4043.589 846 C 4039.301 852.325, 4035.455 857.628, 4035.043 857.785 C 4034.630 857.941, 4030.311 852.541, 4025.446 845.785 C 3923.250 703.854, 3772.203 599.617, 3595.500 549.080 C 3455.644 509.081, 3285.868 503.331, 3138.596 533.605 C 3001.176 561.854, 2872.792 623.719, 2771.500 710.501 C 2725.186 750.180, 2682.826 796.630, 2648.215 845.687 C 2642.322 854.040, 2637.030 861.078, 2636.455 861.327 C 2635.877 861.577, 2633.475 856.567, 2631.090 850.140 C 2620.232 820.878, 2602.812 783.661, 2587.438 756.879 C 2551.749 694.709, 2505.010 641.150, 2450.285 599.714 C 2393.850 556.984, 2321.163 523.922, 2249.858 508.549 C 2205.115 498.903, 2166.878 495.440, 2114.500 496.292 C 2072.271 496.978, 2050.023 499.236, 2013.500 506.544 C 1944.261 520.399, 1874.475 550.755, 1818.500 591.367 C 1791.292 611.107, 1758.195 642.408, 1739.078 666.479 C 1687.586 731.314, 1660.170 804.677, 1655.450 890.265 L 1654.801 902.030 1626.233 901.765 L 1597.666 901.500 1596.429 897.500 C 1579.560 842.929, 1570.620 819.866, 1552.416 783.957 C 1526.715 733.257, 1496.892 691.863, 1458.028 652.949 C 1416.168 611.034, 1373.572 580.193, 1322 554.461 C 1258.056 522.555, 1196.522 505.634, 1116 497.811 C 1097.748 496.038, 1020.261 496.038, 1002.500 497.810 C 972.567 500.798, 951.589 504.060, 926.500 509.630 C 857.568 524.933, 787.260 556.239, 734 595.346 C 707.942 614.479, 675.105 645.619, 657.387 668 C 614.712 721.904, 589.403 780.469, 580.522 845.861 C 579.169 855.823, 577.035 887.651, 577.009 898.250 L 577 902 548.503 902 L 520.005 902 519.753 720.250 L 519.500 538.500 259.750 538.248 L 0 537.996 0 1336.881 L 0 2135.767 2.250 2136.370 C 5.202 2137.161, 516.357 2137.184, 518.418 2136.393 C 519.857 2135.841, 520 2099.378, 520.001 1733.143 C 520.001 1478.073, 520.367 1323.720, 521 1312 C 527.582 1190.072, 558.886 1095.550, 614.325 1030.206 C 625.015 1017.607, 647.017 996.700, 659.237 987.532 C 706.788 951.854, 754.215 935.841, 819.500 933.423 C 895.135 930.621, 958.025 953.570, 1006.434 1001.636 C 1046.444 1041.363, 1068.187 1089.260, 1077.188 1157.500 C 1078.087 1164.310, 1078.455 1284.394, 1078.702 1650.950 C 1078.960 2034.191, 1079.286 2135.563, 1080.264 2136.184 C 1081.698 2137.095, 1594.049 2137.302, 1596.418 2136.393 C 1597.857 2135.841, 1598.001 2099.282, 1598.015 1732.143 C 1598.024 1480.600, 1598.399 1321.906, 1599.011 1311 C 1605.817 1189.768, 1636.608 1096.560, 1691.366 1031.427 C 1701.744 1019.083, 1722.705 998.671, 1734.103 989.809 C 1779.829 954.260, 1826.415 937.507, 1889.817 933.812 C 1950.560 930.273, 2005.305 943.438, 2048 971.855 C 2081.611 994.225, 2109.085 1024.846, 2126.822 1059.706 C 2141.347 1088.253, 2149.394 1115.480, 2154.692 1154 C 2156.294 1165.651, 2156.432 1199.414, 2156.721 1650.950 C 2156.965 2034, 2157.289 2135.565, 2158.265 2136.185 C 2159.698 2137.095, 2672.050 2137.302, 2674.418 2136.393 C 2675.849 2135.844, 2676 2123.680, 2676 2008.893 C 2676 1939.102, 2676.338 1882.035, 2676.750 1882.077 C 2677.162 1882.120, 2681.627 1887.182, 2686.671 1893.327 C 2716.766 1929.988, 2762.894 1974.258, 2803.813 2005.749 C 2926.381 2100.075, 3074.945 2157.516, 3237.500 2173.431 C 3294.793 2179.040, 3362.213 2179.416, 3421 2174.453 C 3571.391 2161.757, 3710.779 2114.220, 3828.500 2035.479 C 3904.949 1984.344, 3971.661 1919.636, 4025.135 1844.750 C 4030.142 1837.737, 4034.583 1832, 4035.004 1832 C 4035.425 1832, 4038.594 1836.163, 4042.047 1841.250 C 4069.120 1881.140, 4098.096 1916.130, 4132.975 1951.049 C 4197.748 2015.895, 4270.201 2065.874, 4355.200 2104.342 C 4489.272 2165.019, 4636.032 2187.679, 4809.500 2174.487 C 4988.449 2160.877, 5139.109 2108.231, 5260.776 2016.793 C 5307.121 1981.963, 5346.709 1942.392, 5379.872 1897.750 C 5385.081 1890.738, 5389.629 1885, 5389.979 1885 C 5390.329 1885, 5392.097 1890.962, 5393.908 1898.250 C 5410.333 1964.346, 5441.354 2018.308, 5483 2053.234 C 5540.600 2101.538, 5619.501 2126.589, 5741 2135.149 C 5760.488 2136.522, 6270.777 2137.644, 6272.050 2136.317 C 6272.480 2135.867, 6272.212 2061.250, 6271.454 1970.500 C 6270.695 1879.750, 6270.058 1797.063, 6270.037 1786.750 L 6270 1768 6100.250 1767.985 C 5904.273 1767.969, 5893.550 1767.628, 5861.143 1760.389 C 5838.874 1755.414, 5820.098 1747.452, 5808.254 1737.961 C 5784.283 1718.753, 5771.296 1683.386, 5769.159 1631.500 C 5767.998 1603.312, 5771.076 917.603, 5772.367 916.765 C 5772.990 916.361, 5871.712 916.024, 5991.750 916.015 L 6210 916 6210 736.002 L 6210 556.004 5990.750 555.752 L 5771.500 555.500 5770.996 278 C 5770.718 125.375, 5770.381 0.388, 5770.246 0.250 C 5769.610 -0.398, 5757.126 0.095, 5756.833 0.779 M 3304 889.609 C 3237.118 895.449, 3187.396 908.745, 3135.847 934.577 C 3073.732 965.703, 3019.464 1013.511, 2981.584 1070.476 C 2939.546 1133.696, 2915.239 1204.926, 2906.331 1291 C 2903.826 1315.201, 2903.835 1376.149, 2906.347 1399.500 C 2916.551 1494.372, 2949.882 1578.249, 3004.775 1647.191 C 3018.085 1663.909, 3049.577 1695.489, 3066 1708.588 C 3121.058 1752.502, 3182.476 1781.552, 3248.500 1794.907 C 3314.185 1808.193, 3392.465 1806.343, 3459.152 1789.927 C 3555.845 1766.126, 3635.414 1709.626, 3691.420 1625 C 3703.093 1607.362, 3708.198 1598.596, 3716.801 1581.412 C 3742.647 1529.788, 3757.925 1473.327, 3764.672 1404.500 C 3767.133 1379.400, 3767.134 1310.932, 3764.675 1287 C 3759.512 1236.761, 3752.186 1201.269, 3738.976 1162.500 C 3701.555 1052.669, 3623.506 966.713, 3521.868 923.396 C 3484.580 907.504, 3441.046 896.628, 3394 891.450 C 3380.246 889.936, 3315.439 888.610, 3304 889.609 M 4692.500 889.622 C 4616.575 895.428, 4557.602 912.365, 4504 943.756 C 4426.775 988.982, 4366.470 1065.331, 4334.922 1157.817 C 4303.369 1250.315, 4297.387 1372.906, 4319.573 1472.343 C 4353.484 1624.329, 4447.100 1734.252, 4582 1780.484 C 4628.406 1796.388, 4674.510 1803.421, 4732 1803.365 C 4808.094 1803.292, 4868.538 1790.538, 4925.500 1762.537 C 5014.671 1718.703, 5075.207 1645.400, 5103.498 1547 L 5106.804 1535.500 5240.652 1535 L 5374.500 1534.500 5374.753 1344.750 L 5375.005 1155 5241.031 1155 L 5107.056 1155 5105.477 1149.250 C 5094.693 1109.976, 5082.809 1081.727, 5065.030 1053.111 C 5024.500 987.873, 4956.990 936.832, 4876.309 910.427 C 4851.574 902.332, 4815.597 894.924, 4784 891.420 C 4770.246 889.895, 4705.555 888.624, 4692.500 889.622" />
  </g>
</svg>
